<?xml version="1.0" encoding="UTF-8" ?>
<!DOCTYPE svg PUBLIC "-//W3C//DTD SVG 1.1//EN" "http://www.w3.org/Graphics/SVG/1.1/DTD/svg11.dtd">
<svg width="3185pt" height="1404pt" viewBox="0 0 3185 1404" version="1.1" xmlns="http://www.w3.org/2000/svg">
<g id="#ffffffff">
<path fill="#ffffff" opacity="1.00" d=" M 78.02 30.02 C 175.68 29.98 273.33 29.99 370.99 30.01 C 371.01 85.34 371.02 140.66 370.98 195.99 C 355.32 195.95 339.67 196.05 324.02 196.01 C 324.00 214.49 323.78 232.98 324.29 251.46 C 344.80 232.94 364.67 213.73 385.13 195.15 C 382.35 195.08 376.80 194.96 374.02 194.89 C 373.98 139.94 373.98 84.98 374.02 30.02 C 475.34 29.98 576.66 30.00 677.99 30.01 C 678.01 85.34 678.02 140.67 677.98 196.00 C 662.77 196.23 647.51 195.27 632.35 196.47 C 626.69 199.89 622.15 204.87 617.18 209.18 C 568.74 252.21 519.87 294.76 471.57 337.95 C 520.52 383.82 569.23 429.95 618.10 475.91 C 621.97 479.30 625.11 483.67 629.58 486.34 C 650.32 488.00 671.19 486.53 691.99 487.01 C 692.01 543.00 692.01 599.00 691.99 654.99 C 487.33 655.01 282.67 655.01 78.01 654.99 C 77.99 598.99 77.99 542.99 78.01 487.00 C 96.34 487.04 114.66 486.96 132.98 486.99 C 133.02 390.00 133.01 293.00 132.98 196.01 C 114.66 196.04 96.34 195.96 78.02 195.99 C 77.98 140.67 77.98 85.34 78.02 30.02 M 98.02 50.02 C 97.98 92.01 97.98 134.00 98.02 175.99 C 116.34 175.96 134.66 176.04 152.98 176.01 C 153.01 286.34 153.02 396.66 152.98 506.99 C 134.66 506.96 116.34 507.04 98.01 507.00 C 97.98 549.66 97.99 592.32 98.01 634.99 C 184.34 635.01 270.66 635.01 356.98 634.99 C 357.02 594.33 357.01 553.67 356.99 513.01 C 339.33 513.04 321.67 512.95 304.01 513.00 C 304.05 468.58 303.84 424.16 304.14 379.75 C 331.82 407.10 359.14 434.82 386.78 462.22 C 404.53 478.48 421.32 495.75 438.19 512.91 C 423.46 513.02 408.74 513.02 394.02 513.00 C 393.98 553.66 393.99 594.32 394.01 634.99 C 486.67 635.01 579.33 635.01 671.99 634.99 C 672.01 592.32 672.02 549.66 671.98 507.00 C 655.48 506.74 638.94 507.79 622.49 506.40 C 616.38 503.24 612.27 497.29 607.12 492.89 C 551.91 441.25 497.35 388.91 441.83 337.62 C 500.28 285.10 559.72 233.68 618.34 181.35 C 621.26 179.26 624.01 175.89 627.93 175.99 C 637.94 175.67 647.96 175.95 657.98 176.00 C 658.02 134.00 658.01 92.01 657.99 50.01 C 570.00 50.00 482.01 49.98 394.02 50.02 C 393.98 92.01 393.98 133.99 394.02 175.98 C 407.45 175.95 420.88 175.98 434.31 176.18 C 391.12 216.75 347.90 257.31 304.12 297.23 C 303.85 256.83 304.05 216.42 304.01 176.01 C 319.66 176.05 335.32 175.95 350.98 175.99 C 351.02 134.00 351.01 92.01 350.99 50.01 C 266.67 49.99 182.34 49.98 98.02 50.02 Z" />
<path fill="#ffffff" opacity="1.00" d=" M 699.02 30.02 C 799.34 29.98 899.66 29.99 999.98 30.02 C 1000.02 85.34 1000.01 140.67 999.98 195.99 C 982.99 195.95 966.00 196.05 949.02 196.01 C 948.98 290.00 948.99 383.99 949.02 477.98 C 969.33 478.04 989.65 478.03 1009.98 477.98 C 1010.06 451.65 1009.94 425.33 1010.01 399.01 C 1070.00 398.99 1129.99 398.98 1189.98 399.02 C 1190.02 484.34 1190.01 569.66 1189.98 654.98 C 1026.33 655.01 862.67 655.01 699.02 654.98 C 698.98 598.99 698.99 543.00 699.01 487.00 C 719.33 487.00 739.65 487.00 759.98 486.99 C 760.01 389.99 760.01 293.00 759.98 196.01 C 739.66 195.99 719.34 196.01 699.02 195.99 C 698.98 140.66 698.98 85.34 699.02 30.02 M 719.02 50.02 C 718.98 92.01 718.98 134.00 719.02 175.99 C 739.34 176.01 759.66 175.99 779.98 176.01 C 780.01 286.34 780.01 396.66 779.98 506.99 C 759.65 507.00 739.33 507.00 719.01 507.00 C 718.98 549.66 718.98 592.32 719.02 634.98 C 869.34 635.01 1019.66 635.01 1169.98 634.98 C 1170.01 562.99 1170.02 491.01 1169.98 419.02 C 1123.32 418.98 1076.66 418.99 1030.01 419.01 C 1029.94 445.33 1030.06 471.66 1029.98 497.98 C 996.32 498.02 962.67 498.01 929.02 497.99 C 928.99 390.66 928.98 283.34 929.02 176.01 C 946.00 176.05 962.99 175.95 979.98 175.99 C 980.02 134.00 980.02 92.01 979.98 50.02 C 892.99 49.99 806.00 49.98 719.02 50.02 Z" />
<path fill="#ffffff" opacity="1.00" d=" M 1195.02 30.02 C 1287.67 29.98 1380.33 29.99 1472.99 30.01 C 1473.00 85.33 1473.02 140.65 1472.98 195.97 C 1460.64 196.00 1448.32 196.00 1436.01 196.02 C 1436.16 276.01 1435.67 356.00 1436.23 435.98 C 1436.23 461.15 1459.06 482.38 1483.44 484.51 C 1498.41 486.89 1514.13 481.48 1524.80 470.81 C 1538.57 457.71 1543.13 438.40 1542.90 420.02 C 1543.15 345.35 1542.93 270.68 1542.99 196.01 C 1527.65 196.05 1512.33 195.95 1497.02 195.99 C 1496.98 140.66 1496.98 85.34 1497.02 30.02 C 1591.67 29.98 1686.33 30.00 1780.99 30.01 C 1781.01 85.34 1781.02 140.66 1780.98 195.99 C 1762.32 195.97 1743.66 196.02 1725.02 196.01 C 1724.97 266.01 1725.01 336.00 1725.01 406.00 C 1724.89 430.82 1725.99 455.91 1721.56 480.46 C 1718.74 497.49 1713.43 514.00 1706.94 529.97 C 1692.71 564.75 1667.99 594.42 1639.27 618.27 C 1596.75 653.47 1540.85 670.48 1486.00 669.11 C 1433.38 670.61 1379.20 657.75 1335.84 627.14 C 1312.56 609.62 1291.83 588.09 1277.44 562.61 C 1264.45 538.97 1255.18 513.12 1251.65 486.33 C 1247.75 462.08 1249.20 437.44 1249.00 413.00 C 1248.98 340.66 1249.03 268.33 1248.98 195.99 C 1230.98 196.05 1213.00 195.96 1195.01 196.00 C 1194.99 140.67 1194.98 85.35 1195.02 30.02 M 1215.02 50.02 C 1214.98 92.01 1214.98 134.00 1215.01 176.00 C 1233.00 175.96 1250.99 176.05 1268.99 175.99 C 1269.02 267.00 1269.00 358.01 1268.98 449.01 C 1269.00 463.97 1270.87 478.87 1273.50 493.58 C 1281.32 535.63 1303.58 575.05 1336.74 602.28 C 1371.78 631.75 1417.46 645.51 1462.54 648.64 C 1500.48 650.76 1539.55 647.59 1575.02 633.03 C 1620.92 614.62 1659.17 578.86 1682.31 535.32 C 1692.42 514.95 1699.28 492.97 1702.53 470.46 C 1705.94 447.47 1704.86 424.15 1705.00 401.00 C 1705.01 326.00 1704.97 251.01 1705.02 176.01 C 1723.66 176.02 1742.32 175.97 1760.98 175.99 C 1761.02 134.00 1761.01 92.00 1760.99 50.01 C 1679.66 50.00 1598.34 49.98 1517.02 50.02 C 1516.98 92.01 1516.98 134.00 1517.02 175.99 C 1532.33 175.95 1547.65 176.05 1562.99 176.00 C 1563.05 255.34 1562.93 334.67 1563.05 414.00 C 1563.01 427.31 1562.77 440.89 1558.61 453.68 C 1548.92 482.65 1520.59 507.01 1488.99 505.03 C 1450.04 506.18 1412.81 470.57 1415.90 431.00 C 1416.13 346.01 1415.92 261.02 1416.01 176.02 C 1428.32 176.00 1440.64 176.00 1452.98 175.97 C 1453.02 133.98 1453.01 92.00 1452.99 50.01 C 1373.66 49.99 1294.34 49.98 1215.02 50.02 Z" />
<path fill="#ffffff" opacity="1.00" d=" M 1783.02 30.02 C 1877.88 30.06 1972.75 29.84 2067.61 30.13 C 2103.04 130.91 2138.38 231.73 2174.22 332.36 C 2191.01 281.06 2206.40 229.31 2222.73 177.87 C 2237.93 128.52 2253.84 79.39 2269.15 30.08 C 2365.76 29.91 2462.37 30.02 2558.98 30.02 C 2559.01 85.34 2559.01 140.67 2558.98 195.99 C 2540.65 195.96 2522.33 196.04 2504.02 196.01 C 2503.98 293.00 2503.98 390.00 2504.02 486.99 C 2523.33 486.98 2542.65 487.01 2561.99 487.01 C 2562.00 543.00 2562.01 598.99 2561.99 654.99 C 2464.32 655.01 2366.67 655.01 2269.01 654.99 C 2268.83 622.23 2269.27 589.47 2268.80 556.72 C 2257.21 589.25 2247.20 622.32 2236.03 655.00 C 2192.34 654.99 2148.65 655.05 2104.97 654.96 C 2094.64 624.67 2086.14 593.78 2075.29 563.66 C 2074.64 594.09 2075.18 624.54 2074.98 654.98 C 1977.65 655.02 1880.33 655.01 1783.01 654.98 C 1782.99 598.99 1782.98 543.00 1783.01 487.00 C 1802.66 487.01 1822.32 486.99 1841.99 486.99 C 1842.00 390.00 1842.01 293.01 1841.98 196.01 C 1822.31 196.00 1802.66 196.00 1783.01 195.99 C 1782.99 140.67 1782.98 85.34 1783.02 30.02 M 1803.02 50.02 C 1802.97 92.01 1802.98 134.00 1803.01 175.99 C 1822.66 176.00 1842.31 176.00 1861.98 176.01 C 1862.01 286.34 1862.00 396.67 1861.99 506.99 C 1842.32 506.99 1822.66 507.01 1803.01 507.00 C 1802.98 549.66 1802.99 592.32 1803.01 634.98 C 1887.00 635.02 1970.99 635.00 2054.99 634.99 C 2055.01 592.33 2055.02 549.67 2054.98 507.01 C 2036.65 507.04 2018.33 506.96 2000.02 506.99 C 2000.08 428.28 1999.78 349.56 2000.18 270.84 C 2005.27 284.74 2009.89 298.81 2014.22 312.97 C 2049.66 420.24 2084.90 527.59 2120.19 634.91 C 2153.80 635.11 2187.42 634.97 2221.04 635.00 C 2245.30 563.88 2268.20 492.31 2292.13 421.09 C 2309.21 369.26 2326.06 317.35 2343.77 265.72 C 2344.29 346.14 2343.87 426.57 2343.98 506.99 C 2325.64 506.96 2307.32 507.04 2289.01 507.00 C 2288.98 549.66 2288.98 592.32 2289.01 634.99 C 2373.33 635.01 2457.66 635.01 2541.99 634.99 C 2542.01 592.33 2542.00 549.67 2541.99 507.01 C 2522.65 507.01 2503.33 506.98 2484.02 506.99 C 2483.99 396.66 2483.98 286.34 2484.02 176.01 C 2502.33 176.04 2520.65 175.96 2538.98 175.99 C 2539.01 134.00 2539.01 92.01 2538.98 50.02 C 2453.93 49.95 2368.88 50.05 2283.83 49.97 C 2247.69 165.66 2211.83 281.44 2175.48 397.07 C 2134.57 281.42 2093.86 165.71 2052.94 50.06 C 1969.63 49.92 1886.32 50.02 1803.02 50.02 Z" />
<path fill="#ffffff" opacity="1.00" d=" M 2571.02 30.02 C 2654.34 29.96 2737.67 30.02 2821.00 29.99 C 2848.01 30.01 2875.18 29.40 2902.04 33.00 C 2932.80 37.13 2962.99 46.59 2990.02 61.98 C 3010.70 73.36 3027.87 90.05 3043.34 107.68 C 3076.56 148.02 3090.34 201.41 3089.11 253.00 C 3090.55 307.43 3071.91 363.24 3033.72 402.73 C 3004.68 434.34 2964.55 454.63 2922.61 462.52 C 2889.48 469.19 2855.54 466.48 2822.01 467.02 C 2821.96 473.67 2821.96 480.33 2822.00 486.99 C 2837.98 486.93 2853.97 487.06 2869.99 487.01 C 2870.00 543.00 2870.01 598.99 2869.99 654.99 C 2770.33 655.01 2670.67 655.01 2571.01 654.99 C 2570.98 598.99 2570.98 543.00 2571.01 487.00 C 2590.99 487.01 2610.98 486.99 2630.98 486.99 C 2631.01 389.99 2631.01 293.00 2630.98 196.01 C 2610.98 196.01 2590.99 195.99 2571.02 195.99 C 2570.98 140.66 2570.98 85.34 2571.02 30.02 M 2591.02 50.02 C 2590.97 92.01 2590.97 134.00 2591.02 175.99 C 2610.99 175.99 2630.98 176.01 2650.98 176.01 C 2651.01 286.34 2651.01 396.66 2650.98 506.99 C 2630.98 506.99 2610.99 507.01 2591.01 507.00 C 2590.98 549.66 2590.98 592.33 2591.01 634.99 C 2677.33 635.01 2763.66 635.01 2849.99 634.99 C 2850.01 592.33 2850.00 549.67 2849.99 507.01 C 2833.98 507.06 2818.00 506.92 2802.03 506.99 C 2801.95 487.00 2801.94 467.01 2802.02 447.02 C 2843.31 445.93 2885.37 450.54 2925.98 440.93 C 2959.64 433.76 2991.29 417.02 3015.74 392.74 C 3037.89 370.12 3054.27 341.75 3061.95 310.99 C 3071.49 275.34 3070.92 237.59 3064.47 201.45 C 3057.73 165.05 3040.27 130.28 3013.31 104.69 C 2996.60 88.34 2976.41 75.78 2954.65 67.37 C 2921.79 54.30 2886.14 50.16 2851.01 50.02 C 2764.34 49.98 2677.68 49.99 2591.02 50.02 Z" />
<path fill="#ffffff" opacity="1.00" d=" M 2800.01 183.02 C 2824.60 184.03 2849.80 180.27 2874.01 185.97 C 2885.02 189.00 2895.75 193.97 2904.22 201.79 C 2924.10 218.50 2927.81 248.48 2920.15 272.11 C 2913.27 292.77 2893.28 305.67 2873.12 311.07 C 2849.26 317.14 2824.39 316.00 2800.01 315.98 C 2799.98 271.66 2799.98 227.34 2800.01 183.02 M 2820.01 203.00 C 2819.97 234.06 2819.97 265.11 2820.02 296.17 C 2839.03 295.78 2858.54 295.10 2876.64 288.60 C 2886.21 284.32 2896.11 278.38 2900.00 268.01 C 2905.42 253.30 2905.00 235.32 2895.93 222.10 C 2889.26 213.74 2879.45 208.28 2869.16 205.74 C 2853.14 201.50 2836.35 203.30 2820.01 203.00 Z" />
<path fill="#ffffff" opacity="1.00" d=" M 886.41 729.39 C 945.64 726.41 1005.60 740.37 1057.12 769.83 C 1088.71 787.56 1116.35 811.62 1141.06 837.94 C 1192.83 893.39 1222.70 969.00 1221.10 1045.00 C 1224.29 1132.16 1187.82 1218.94 1125.79 1279.79 C 1082.59 1325.41 1025.67 1358.55 963.88 1370.88 C 933.16 1377.44 901.57 1377.77 870.32 1376.71 C 819.10 1373.78 768.61 1358.06 724.97 1331.05 C 701.15 1316.27 679.72 1297.83 660.64 1277.35 C 614.01 1229.43 585.49 1165.16 578.04 1098.96 C 574.67 1067.44 573.94 1035.45 578.00 1003.96 C 582.12 973.53 590.97 943.80 604.07 916.03 C 620.29 880.63 644.29 849.18 672.21 822.21 C 722.35 771.10 790.57 737.52 862.04 731.05 C 870.14 730.20 878.27 729.82 886.41 729.39 M 890.41 749.41 C 842.62 750.73 794.63 762.03 752.97 785.91 C 721.46 803.33 693.48 826.75 669.62 853.64 C 647.18 878.87 628.53 907.64 616.10 939.10 C 592.09 997.69 590.54 1063.50 602.94 1125.01 C 613.87 1179.15 641.10 1229.80 680.13 1268.87 C 715.24 1305.40 760.03 1332.66 809.02 1345.90 C 857.38 1359.33 908.92 1360.56 958.15 1351.24 C 1006.83 1342.17 1052.12 1318.63 1089.66 1286.65 C 1124.60 1256.14 1154.55 1219.22 1173.84 1176.84 C 1193.02 1135.46 1202.32 1089.57 1201.08 1044.00 C 1200.89 1006.84 1194.37 969.47 1179.84 935.16 C 1155.79 876.55 1111.02 827.92 1058.00 794.01 C 1008.42 762.45 949.00 747.36 890.41 749.41 Z" />
<path fill="#ffffff" opacity="1.00" d=" M 38.02 738.02 C 214.67 737.99 391.33 737.98 567.98 738.02 C 568.02 819.34 568.00 900.66 567.99 981.99 C 516.66 982.01 465.34 982.01 414.02 981.99 C 413.95 958.32 414.05 934.66 413.98 911.00 C 410.24 911.00 402.76 911.00 399.02 911.00 C 398.98 1005.66 399.00 1100.33 399.01 1195.00 C 418.00 1194.97 436.99 1195.01 455.99 1195.01 C 456.01 1251.00 456.02 1306.99 455.99 1362.99 C 356.00 1363.00 256.01 1363.02 156.02 1362.98 C 155.98 1306.98 155.99 1250.99 156.01 1194.99 C 174.00 1195.04 191.99 1194.95 209.99 1195.00 C 210.01 1100.33 210.01 1005.66 209.99 910.99 C 205.32 910.96 200.67 911.02 196.01 910.99 C 195.94 935.32 196.06 959.65 195.98 983.99 C 143.33 984.01 90.67 984.01 38.01 983.99 C 38.00 902.00 37.98 820.01 38.02 738.02 M 58.02 758.02 C 57.98 826.67 57.99 895.33 58.01 963.99 C 97.34 964.02 136.66 964.01 175.98 963.99 C 176.06 939.66 175.94 915.34 176.02 891.02 C 194.01 890.96 212.00 890.94 229.99 891.03 C 230.01 999.02 230.01 1107.01 229.99 1215.00 C 211.99 1214.95 194.00 1215.04 176.01 1214.99 C 175.98 1257.65 175.98 1300.31 176.02 1342.98 C 262.68 1343.02 349.33 1343.00 435.99 1342.99 C 436.02 1300.33 436.01 1257.67 435.99 1215.01 C 416.99 1215.01 398.00 1214.97 379.01 1215.00 C 379.00 1107.01 378.98 999.02 379.02 891.03 C 397.34 890.96 415.66 890.94 433.98 891.03 C 434.05 914.68 433.95 938.33 434.02 961.99 C 472.01 962.01 510.00 962.01 547.99 961.99 C 548.00 894.00 548.02 826.01 547.98 758.02 C 384.66 757.98 221.34 757.99 58.02 758.02 Z" />
<path fill="#ffffff" opacity="1.00" d=" M 1226.02 738.02 C 1326.34 737.98 1426.66 737.99 1526.98 738.02 C 1527.20 791.12 1526.66 844.22 1527.23 897.32 C 1535.98 867.34 1543.33 836.97 1551.88 806.94 C 1558.73 784.09 1563.94 760.80 1570.80 737.96 C 1621.61 738.01 1672.43 738.03 1723.25 737.95 C 1729.64 755.40 1733.70 773.58 1739.86 791.12 C 1757.65 850.39 1775.17 909.74 1792.99 969.00 C 1796.01 978.86 1798.24 989.01 1802.27 998.54 C 1809.72 967.09 1816.72 935.53 1823.99 904.03 C 1807.32 904.02 1790.66 903.95 1774.02 903.99 C 1773.98 848.67 1773.98 793.34 1774.02 738.02 C 1873.34 737.98 1972.66 737.99 2071.99 738.01 C 2072.00 793.34 2072.02 848.66 2071.98 903.98 C 2051.07 904.03 2030.16 903.93 2009.27 904.06 C 1984.83 998.54 1959.02 1092.69 1934.16 1187.07 C 1921.51 1232.31 1910.65 1278.04 1896.99 1323.00 C 1893.25 1336.30 1889.29 1349.55 1885.72 1362.90 C 1832.66 1362.97 1779.60 1363.26 1726.55 1362.77 C 1701.42 1274.65 1675.94 1186.63 1650.33 1098.64 C 1638.92 1134.16 1629.74 1170.36 1619.24 1206.16 C 1604.54 1258.45 1589.40 1310.61 1574.72 1362.90 C 1520.26 1363.08 1465.81 1363.04 1411.36 1362.93 C 1401.87 1327.44 1390.93 1292.36 1381.00 1257.00 C 1347.36 1139.33 1313.62 1021.69 1279.89 904.05 C 1261.92 904.02 1243.96 903.95 1226.01 904.00 C 1225.99 848.67 1225.98 793.35 1226.02 738.02 M 1246.02 758.02 C 1245.98 800.02 1245.98 842.01 1246.01 884.01 C 1262.48 883.87 1278.96 883.93 1295.44 884.35 C 1339.24 1037.24 1382.94 1190.16 1426.89 1343.01 C 1471.07 1342.78 1515.26 1343.46 1559.44 1342.64 C 1589.46 1236.63 1619.44 1130.61 1649.70 1024.67 C 1652.40 1031.25 1654.03 1038.17 1656.02 1044.99 C 1684.78 1144.29 1713.50 1243.61 1742.28 1342.90 C 1785.39 1343.07 1828.52 1343.07 1871.64 1342.90 C 1910.77 1194.26 1950.95 1045.89 1990.26 897.30 C 1991.59 892.98 1991.81 888.15 1994.25 884.28 C 2013.44 883.27 2032.73 884.39 2051.98 883.98 C 2052.02 841.99 2052.00 800.00 2051.99 758.01 C 1966.00 757.99 1880.01 757.98 1794.02 758.02 C 1793.98 800.01 1793.98 842.00 1794.02 883.99 C 1812.43 883.96 1830.84 884.00 1849.27 884.05 C 1834.87 949.20 1819.62 1014.17 1804.70 1079.20 C 1772.63 972.18 1740.75 865.11 1708.89 758.03 C 1667.95 757.99 1627.02 757.93 1586.09 758.06 C 1569.48 819.74 1552.71 881.37 1536.18 943.07 C 1523.51 988.79 1511.82 1034.79 1498.70 1080.38 C 1481.42 1015.02 1464.83 949.47 1447.80 884.04 C 1467.52 883.95 1487.25 884.02 1506.98 883.99 C 1507.01 841.99 1507.02 800.01 1506.98 758.02 C 1419.99 757.99 1333.00 757.98 1246.02 758.02 M 1473.99 904.02 C 1482.48 936.45 1490.53 968.99 1499.33 1001.34 C 1507.99 968.92 1517.12 936.61 1525.28 904.07 C 1508.18 903.93 1491.08 903.95 1473.99 904.02 Z" />
<path fill="#ffffff" opacity="1.00" d=" M 2078.02 738.02 C 2241.67 737.99 2405.32 737.99 2568.98 738.02 C 2569.02 814.34 2569.00 890.66 2568.99 966.99 C 2533.32 967.06 2497.66 966.93 2462.01 967.02 C 2461.99 1017.67 2461.97 1068.33 2462.02 1118.99 C 2497.00 1119.05 2531.98 1118.93 2566.98 1119.02 C 2567.02 1200.34 2567.00 1281.66 2566.99 1362.99 C 2404.00 1363.01 2241.00 1363.00 2078.01 1362.99 C 2077.98 1306.99 2077.98 1250.99 2078.01 1195.00 C 2096.66 1195.02 2115.31 1194.97 2133.98 1194.99 C 2134.01 1097.99 2134.01 1001.00 2133.98 904.01 C 2115.31 904.02 2096.66 903.97 2078.02 903.99 C 2077.98 848.66 2077.98 793.34 2078.02 738.02 M 2098.02 758.02 C 2097.98 800.01 2097.97 842.00 2098.02 883.99 C 2116.66 883.97 2135.31 884.02 2153.98 884.01 C 2154.01 994.33 2154.01 1104.66 2153.98 1214.99 C 2135.31 1214.97 2116.66 1215.02 2098.01 1215.00 C 2097.98 1257.66 2097.98 1300.32 2098.01 1342.99 C 2247.67 1343.00 2397.33 1343.01 2546.99 1342.99 C 2547.00 1275.00 2547.02 1207.01 2546.98 1139.02 C 2500.32 1138.98 2453.67 1138.98 2407.02 1139.02 C 2406.93 1162.67 2407.04 1186.32 2406.99 1209.99 C 2374.32 1210.02 2341.66 1210.01 2309.01 1209.99 C 2308.97 1177.33 2308.98 1144.67 2309.01 1112.01 C 2353.33 1111.94 2397.65 1112.05 2441.99 1111.99 C 2442.01 1065.99 2442.00 1020.00 2441.99 974.01 C 2397.66 973.94 2353.34 974.06 2309.02 973.98 C 2308.96 946.99 2308.97 920.00 2309.01 893.01 C 2341.66 892.98 2374.33 892.98 2407.00 893.01 C 2406.95 911.00 2407.03 928.99 2406.99 946.98 C 2454.32 947.02 2501.65 947.01 2548.99 946.99 C 2549.00 884.00 2549.02 821.01 2548.98 758.02 C 2398.66 757.99 2248.34 757.99 2098.02 758.02 M 2329.02 913.03 C 2328.95 926.67 2328.95 940.33 2329.01 953.99 C 2348.58 954.02 2368.15 954.06 2387.75 953.95 C 2386.52 940.35 2387.12 926.65 2386.96 913.02 C 2367.63 912.96 2348.32 912.95 2329.02 913.03 M 2329.02 1132.02 C 2328.95 1151.34 2328.94 1170.65 2329.02 1189.98 C 2348.33 1190.03 2367.65 1190.04 2386.98 1189.98 C 2387.02 1170.65 2387.03 1151.33 2386.98 1132.02 C 2367.64 1131.96 2348.33 1131.95 2329.02 1132.02 Z" />
<path fill="#ffffff" opacity="1.00" d=" M 2576.02 738.02 C 2657.68 737.97 2739.34 738.02 2821.00 738.00 C 2861.83 737.88 2903.33 737.05 2943.33 746.65 C 2978.85 754.80 3013.48 769.84 3041.43 793.56 C 3053.14 804.15 3064.56 815.22 3074.17 827.82 C 3095.26 857.16 3108.31 892.10 3111.95 928.04 C 3116.03 967.93 3114.53 1009.37 3100.38 1047.29 C 3085.22 1090.27 3052.60 1127.89 3009.93 1145.08 C 3023.57 1161.50 3036.76 1178.29 3050.13 1194.94 C 3074.40 1195.10 3098.69 1194.92 3122.99 1195.02 C 3123.00 1251.01 3123.01 1307.00 3122.99 1362.99 C 3061.75 1362.94 3000.51 1363.15 2939.28 1362.89 C 2919.95 1334.38 2898.88 1307.10 2879.11 1278.91 C 2872.96 1270.06 2866.33 1261.57 2860.09 1252.81 C 2859.84 1289.53 2860.10 1326.25 2859.98 1362.98 C 2765.32 1363.02 2670.67 1363.00 2576.01 1362.99 C 2575.98 1306.99 2575.98 1251.00 2576.01 1195.00 C 2595.99 1195.01 2615.98 1194.98 2635.98 1194.99 C 2636.01 1097.99 2636.01 1001.00 2635.98 904.01 C 2615.98 904.00 2595.99 903.99 2576.02 903.99 C 2575.98 848.66 2575.98 793.34 2576.02 738.02 M 2596.02 758.02 C 2595.97 800.01 2595.97 842.00 2596.02 883.99 C 2615.99 883.99 2635.98 884.00 2655.98 884.01 C 2656.01 994.34 2656.01 1104.66 2655.98 1214.99 C 2635.98 1214.98 2615.99 1215.01 2596.01 1215.00 C 2595.98 1257.66 2595.98 1300.32 2596.01 1342.99 C 2677.33 1343.01 2758.66 1343.01 2839.99 1342.99 C 2840.01 1300.33 2840.00 1257.68 2839.99 1215.03 C 2828.97 1214.98 2817.98 1214.99 2807.02 1214.96 C 2807.01 1191.56 2806.85 1168.16 2807.12 1144.78 C 2854.87 1210.78 2902.54 1276.85 2950.15 1342.95 C 3001.09 1343.06 3052.03 1342.98 3102.99 1342.99 C 3103.01 1300.33 3103.00 1257.67 3102.99 1215.01 C 3082.07 1214.95 3061.18 1215.12 3040.29 1214.86 C 3018.82 1187.89 2997.22 1161.02 2975.38 1134.35 C 2980.14 1133.02 2984.88 1131.83 2989.70 1130.44 C 3015.10 1123.46 3038.16 1108.19 3054.60 1087.63 C 3072.06 1066.78 3083.18 1041.14 3088.63 1014.62 C 3095.63 982.05 3095.19 948.16 3089.52 915.42 C 3083.10 878.17 3065.18 842.48 3037.25 816.74 C 3010.80 791.30 2976.44 775.19 2940.93 767.01 C 2908.28 759.06 2874.46 757.80 2841.00 757.97 C 2759.34 758.05 2677.68 757.95 2596.02 758.02 Z" />
<path fill="#ffffff" opacity="1.00" d=" M 2805.01 891.01 C 2837.33 892.37 2871.32 886.35 2902.24 898.69 C 2921.37 905.43 2937.34 921.39 2942.81 941.07 C 2949.44 965.30 2949.25 993.29 2934.62 1014.63 C 2919.92 1035.18 2894.28 1044.52 2869.97 1047.04 C 2848.38 1048.98 2826.66 1049.24 2805.01 1048.99 C 2804.98 996.33 2804.98 943.67 2805.01 891.01 M 2825.01 911.00 C 2824.98 950.38 2824.97 989.76 2825.02 1029.15 C 2852.90 1027.44 2884.05 1030.10 2908.10 1013.09 C 2923.11 1002.69 2928.20 982.81 2926.48 965.45 C 2925.49 954.25 2923.70 942.46 2916.74 933.25 C 2909.54 923.24 2897.87 917.60 2886.16 914.78 C 2866.21 909.57 2845.37 911.22 2825.01 911.00 Z" />
<path fill="#ffffff" opacity="1.00" d=" M 884.45 902.58 C 901.65 901.34 919.27 901.23 936.03 905.91 C 978.23 915.85 1012.97 947.27 1032.96 985.00 C 1051.62 1022.70 1054.27 1068.16 1039.58 1107.63 C 1025.24 1143.99 996.50 1174.18 961.60 1191.51 C 923.94 1209.10 878.76 1211.61 839.99 1196.03 C 803.25 1180.66 773.28 1150.04 757.45 1113.61 C 740.08 1071.26 741.78 1020.71 764.77 980.77 C 789.78 938.33 834.67 906.48 884.45 902.58 M 888.45 922.57 C 875.43 923.80 862.50 926.57 850.27 931.21 C 825.30 941.79 803.13 959.40 788.06 982.04 C 763.19 1016.89 760.30 1064.28 775.23 1103.72 C 785.10 1127.17 801.09 1148.36 822.15 1162.87 C 856.42 1189.06 904.41 1191.94 943.98 1177.04 C 977.95 1163.48 1006.18 1135.95 1020.06 1102.03 C 1035.83 1060.01 1029.94 1009.63 1002.06 973.96 C 976.76 938.43 932.02 917.45 888.45 922.57 Z" />
</g>
<g id="#000000ff">
<path fill="#000000" opacity="1.00" d=" M 98.02 50.02 C 182.34 49.98 266.67 49.99 350.99 50.01 C 351.01 92.01 351.02 134.00 350.98 175.99 C 335.32 175.95 319.66 176.05 304.01 176.01 C 304.05 216.42 303.85 256.83 304.12 297.23 C 347.90 257.31 391.12 216.75 434.31 176.18 C 420.88 175.98 407.45 175.95 394.02 175.98 C 393.98 133.99 393.98 92.01 394.02 50.02 C 482.01 49.98 570.00 50.00 657.99 50.01 C 658.01 92.01 658.02 134.00 657.98 176.00 C 647.96 175.95 637.94 175.67 627.93 175.99 C 624.01 175.89 621.26 179.26 618.34 181.35 C 559.72 233.68 500.28 285.10 441.83 337.62 C 497.35 388.91 551.91 441.25 607.12 492.89 C 612.27 497.29 616.38 503.24 622.49 506.40 C 638.94 507.79 655.48 506.74 671.98 507.00 C 672.02 549.66 672.01 592.32 671.99 634.99 C 579.33 635.01 486.67 635.01 394.01 634.99 C 393.99 594.32 393.98 553.66 394.02 513.00 C 408.74 513.02 423.46 513.02 438.19 512.91 C 421.32 495.75 404.53 478.48 386.78 462.22 C 359.14 434.82 331.82 407.10 304.14 379.75 C 303.84 424.16 304.05 468.58 304.01 513.00 C 321.67 512.95 339.33 513.04 356.99 513.01 C 357.01 553.67 357.02 594.33 356.98 634.99 C 270.66 635.01 184.34 635.01 98.01 634.99 C 97.99 592.32 97.98 549.66 98.01 507.00 C 116.34 507.04 134.66 506.96 152.98 506.99 C 153.02 396.66 153.01 286.34 152.98 176.01 C 134.66 176.04 116.34 175.96 98.02 175.99 C 97.98 134.00 97.98 92.01 98.02 50.02 Z" />
<path fill="#000000" opacity="1.00" d=" M 719.02 50.02 C 806.00 49.98 892.99 49.99 979.98 50.02 C 980.02 92.01 980.02 134.00 979.98 175.99 C 962.99 175.95 946.00 176.05 929.02 176.01 C 928.98 283.34 928.99 390.66 929.02 497.99 C 962.67 498.01 996.32 498.02 1029.98 497.98 C 1030.06 471.66 1029.94 445.33 1030.01 419.01 C 1076.66 418.99 1123.32 418.98 1169.98 419.02 C 1170.02 491.01 1170.01 562.99 1169.98 634.98 C 1019.66 635.01 869.34 635.01 719.02 634.98 C 718.98 592.32 718.98 549.66 719.01 507.00 C 739.33 507.00 759.65 507.00 779.98 506.99 C 780.01 396.66 780.01 286.34 779.98 176.01 C 759.66 175.99 739.34 176.01 719.02 175.99 C 718.98 134.00 718.98 92.01 719.02 50.02 Z" />
<path fill="#000000" opacity="1.00" d=" M 1215.02 50.02 C 1294.34 49.98 1373.66 49.99 1452.99 50.01 C 1453.01 92.00 1453.02 133.98 1452.98 175.97 C 1440.64 176.00 1428.32 176.00 1416.01 176.02 C 1415.92 261.02 1416.13 346.01 1415.90 431.00 C 1412.81 470.57 1450.04 506.18 1488.99 505.03 C 1520.59 507.01 1548.92 482.65 1558.61 453.68 C 1562.77 440.89 1563.01 427.31 1563.05 414.00 C 1562.93 334.67 1563.05 255.34 1562.99 176.00 C 1547.65 176.05 1532.33 175.95 1517.02 175.99 C 1516.98 134.00 1516.98 92.01 1517.02 50.02 C 1598.34 49.98 1679.66 50.00 1760.99 50.01 C 1761.01 92.00 1761.02 134.00 1760.98 175.99 C 1742.32 175.97 1723.66 176.02 1705.02 176.01 C 1704.97 251.01 1705.01 326.00 1705.00 401.00 C 1704.86 424.15 1705.94 447.47 1702.53 470.46 C 1699.28 492.97 1692.42 514.95 1682.31 535.32 C 1659.17 578.86 1620.92 614.62 1575.02 633.03 C 1539.55 647.59 1500.48 650.76 1462.54 648.64 C 1417.46 645.51 1371.78 631.75 1336.74 602.28 C 1303.58 575.05 1281.32 535.63 1273.50 493.58 C 1270.87 478.87 1269.00 463.97 1268.98 449.01 C 1269.00 358.01 1269.02 267.00 1268.99 175.99 C 1250.99 176.05 1233.00 175.96 1215.01 176.00 C 1214.98 134.00 1214.98 92.01 1215.02 50.02 Z" />
<path fill="#000000" opacity="1.00" d=" M 1803.02 50.02 C 1886.32 50.02 1969.63 49.92 2052.94 50.06 C 2093.86 165.71 2134.57 281.42 2175.48 397.07 C 2211.83 281.44 2247.69 165.66 2283.83 49.97 C 2368.88 50.05 2453.93 49.95 2538.98 50.02 C 2539.01 92.01 2539.01 134.00 2538.98 175.99 C 2520.65 175.96 2502.33 176.04 2484.02 176.01 C 2483.98 286.34 2483.99 396.66 2484.02 506.99 C 2503.33 506.98 2522.65 507.01 2541.99 507.01 C 2542.00 549.67 2542.01 592.33 2541.99 634.99 C 2457.66 635.01 2373.33 635.01 2289.01 634.99 C 2288.98 592.32 2288.98 549.66 2289.01 507.00 C 2307.32 507.04 2325.64 506.96 2343.98 506.99 C 2343.87 426.57 2344.29 346.14 2343.77 265.72 C 2326.06 317.35 2309.21 369.26 2292.13 421.09 C 2268.20 492.31 2245.30 563.88 2221.04 635.00 C 2187.42 634.97 2153.80 635.11 2120.19 634.91 C 2084.90 527.59 2049.66 420.24 2014.22 312.97 C 2009.89 298.81 2005.27 284.74 2000.18 270.84 C 1999.78 349.56 2000.08 428.28 2000.02 506.99 C 2018.33 506.96 2036.65 507.04 2054.98 507.01 C 2055.02 549.67 2055.01 592.33 2054.99 634.99 C 1970.99 635.00 1887.00 635.02 1803.01 634.98 C 1802.99 592.32 1802.98 549.66 1803.01 507.00 C 1822.66 507.01 1842.32 506.99 1861.99 506.99 C 1862.00 396.67 1862.01 286.34 1861.98 176.01 C 1842.31 176.00 1822.66 176.00 1803.01 175.99 C 1802.98 134.00 1802.97 92.01 1803.02 50.02 Z" />
<path fill="#000000" opacity="1.00" d=" M 2591.02 50.02 C 2677.68 49.99 2764.34 49.98 2851.01 50.02 C 2886.14 50.16 2921.79 54.30 2954.65 67.37 C 2976.41 75.78 2996.60 88.34 3013.31 104.69 C 3040.27 130.28 3057.73 165.05 3064.47 201.45 C 3070.92 237.59 3071.49 275.34 3061.95 310.99 C 3054.27 341.75 3037.89 370.12 3015.74 392.74 C 2991.29 417.02 2959.64 433.76 2925.98 440.93 C 2885.37 450.54 2843.31 445.93 2802.02 447.02 C 2801.94 467.01 2801.95 487.00 2802.03 506.99 C 2818.00 506.92 2833.98 507.06 2849.99 507.01 C 2850.00 549.67 2850.01 592.33 2849.99 634.99 C 2763.66 635.01 2677.33 635.01 2591.01 634.99 C 2590.98 592.33 2590.98 549.66 2591.01 507.00 C 2610.99 507.01 2630.98 506.99 2650.98 506.99 C 2651.01 396.66 2651.01 286.34 2650.98 176.01 C 2630.98 176.01 2610.99 175.99 2591.02 175.99 C 2590.97 134.00 2590.97 92.01 2591.02 50.02 M 2800.01 183.02 C 2799.98 227.34 2799.98 271.66 2800.01 315.98 C 2824.39 316.00 2849.26 317.14 2873.12 311.07 C 2893.28 305.67 2913.27 292.77 2920.15 272.11 C 2927.81 248.48 2924.10 218.50 2904.22 201.79 C 2895.75 193.97 2885.02 189.00 2874.01 185.97 C 2849.80 180.27 2824.60 184.03 2800.01 183.02 Z" />
<path fill="#000000" opacity="1.00" d=" M 890.41 749.41 C 949.00 747.36 1008.42 762.45 1058.00 794.01 C 1111.02 827.92 1155.79 876.55 1179.84 935.16 C 1194.37 969.47 1200.89 1006.84 1201.08 1044.00 C 1202.32 1089.57 1193.02 1135.46 1173.84 1176.84 C 1154.55 1219.22 1124.60 1256.14 1089.66 1286.65 C 1052.12 1318.63 1006.83 1342.17 958.15 1351.24 C 908.92 1360.56 857.38 1359.33 809.02 1345.90 C 760.03 1332.66 715.24 1305.40 680.13 1268.87 C 641.10 1229.80 613.87 1179.15 602.94 1125.01 C 590.54 1063.50 592.09 997.69 616.10 939.10 C 628.53 907.64 647.18 878.87 669.62 853.64 C 693.48 826.75 721.46 803.33 752.97 785.91 C 794.63 762.03 842.62 750.73 890.41 749.41 M 884.45 902.58 C 834.67 906.48 789.78 938.33 764.77 980.77 C 741.78 1020.71 740.08 1071.26 757.45 1113.61 C 773.28 1150.04 803.25 1180.66 839.99 1196.03 C 878.76 1211.61 923.94 1209.10 961.60 1191.51 C 996.50 1174.18 1025.24 1143.99 1039.58 1107.63 C 1054.27 1068.16 1051.62 1022.70 1032.96 985.00 C 1012.97 947.27 978.23 915.85 936.03 905.91 C 919.27 901.23 901.65 901.34 884.45 902.58 Z" />
<path fill="#000000" opacity="1.00" d=" M 58.02 758.02 C 221.34 757.99 384.66 757.98 547.98 758.02 C 548.02 826.01 548.00 894.00 547.99 961.99 C 510.00 962.01 472.01 962.01 434.02 961.99 C 433.95 938.33 434.05 914.68 433.98 891.03 C 415.66 890.94 397.34 890.96 379.02 891.03 C 378.98 999.02 379.00 1107.01 379.01 1215.00 C 398.00 1214.97 416.99 1215.01 435.99 1215.01 C 436.01 1257.67 436.02 1300.33 435.99 1342.99 C 349.33 1343.00 262.68 1343.02 176.02 1342.98 C 175.98 1300.31 175.98 1257.65 176.01 1214.99 C 194.00 1215.04 211.99 1214.95 229.99 1215.00 C 230.01 1107.01 230.01 999.02 229.99 891.03 C 212.00 890.94 194.01 890.96 176.02 891.02 C 175.94 915.34 176.06 939.66 175.98 963.99 C 136.66 964.01 97.34 964.02 58.01 963.99 C 57.99 895.33 57.98 826.67 58.02 758.02 Z" />
<path fill="#000000" opacity="1.00" d=" M 1246.02 758.02 C 1333.00 757.98 1419.99 757.99 1506.98 758.02 C 1507.02 800.01 1507.01 841.99 1506.98 883.99 C 1487.25 884.02 1467.52 883.95 1447.80 884.04 C 1464.83 949.47 1481.42 1015.02 1498.70 1080.38 C 1511.82 1034.79 1523.51 988.79 1536.18 943.07 C 1552.71 881.37 1569.48 819.74 1586.09 758.06 C 1627.02 757.93 1667.95 757.99 1708.89 758.03 C 1740.75 865.11 1772.63 972.18 1804.70 1079.20 C 1819.62 1014.17 1834.87 949.20 1849.27 884.05 C 1830.84 884.00 1812.43 883.96 1794.02 883.99 C 1793.98 842.00 1793.98 800.01 1794.02 758.02 C 1880.01 757.98 1966.00 757.99 2051.99 758.01 C 2052.00 800.00 2052.02 841.99 2051.98 883.98 C 2032.73 884.39 2013.44 883.27 1994.25 884.28 C 1991.81 888.15 1991.59 892.98 1990.26 897.30 C 1950.95 1045.89 1910.77 1194.26 1871.64 1342.90 C 1828.52 1343.07 1785.39 1343.07 1742.28 1342.90 C 1713.50 1243.61 1684.78 1144.29 1656.02 1044.99 C 1654.03 1038.17 1652.40 1031.25 1649.70 1024.67 C 1619.44 1130.61 1589.46 1236.63 1559.44 1342.64 C 1515.26 1343.46 1471.07 1342.78 1426.89 1343.01 C 1382.94 1190.16 1339.24 1037.24 1295.44 884.35 C 1278.96 883.93 1262.48 883.87 1246.01 884.01 C 1245.98 842.01 1245.98 800.02 1246.02 758.02 Z" />
<path fill="#000000" opacity="1.00" d=" M 2098.02 758.02 C 2248.34 757.99 2398.66 757.99 2548.98 758.02 C 2549.02 821.01 2549.00 884.00 2548.99 946.99 C 2501.65 947.01 2454.32 947.02 2406.99 946.98 C 2407.03 928.99 2406.95 911.00 2407.00 893.01 C 2374.33 892.98 2341.66 892.98 2309.01 893.01 C 2308.97 920.00 2308.96 946.99 2309.02 973.98 C 2353.34 974.06 2397.66 973.94 2441.99 974.01 C 2442.00 1020.00 2442.01 1065.99 2441.99 1111.99 C 2397.65 1112.05 2353.33 1111.94 2309.01 1112.01 C 2308.98 1144.67 2308.97 1177.33 2309.01 1209.99 C 2341.66 1210.01 2374.32 1210.02 2406.99 1209.99 C 2407.04 1186.32 2406.93 1162.67 2407.02 1139.02 C 2453.67 1138.98 2500.32 1138.98 2546.98 1139.02 C 2547.02 1207.01 2547.00 1275.00 2546.99 1342.99 C 2397.33 1343.01 2247.67 1343.00 2098.01 1342.99 C 2097.98 1300.32 2097.98 1257.66 2098.01 1215.00 C 2116.66 1215.02 2135.31 1214.97 2153.98 1214.99 C 2154.01 1104.66 2154.01 994.33 2153.98 884.01 C 2135.31 884.02 2116.66 883.97 2098.02 883.99 C 2097.97 842.00 2097.98 800.01 2098.02 758.02 Z" />
<path fill="#000000" opacity="1.00" d=" M 2596.02 758.02 C 2677.68 757.95 2759.34 758.05 2841.00 757.97 C 2874.46 757.80 2908.28 759.06 2940.93 767.01 C 2976.44 775.19 3010.80 791.30 3037.25 816.74 C 3065.18 842.48 3083.10 878.17 3089.52 915.42 C 3095.19 948.16 3095.63 982.05 3088.63 1014.62 C 3083.18 1041.14 3072.06 1066.78 3054.60 1087.63 C 3038.16 1108.19 3015.10 1123.46 2989.70 1130.44 C 2984.88 1131.83 2980.14 1133.02 2975.38 1134.35 C 2997.22 1161.02 3018.82 1187.89 3040.29 1214.86 C 3061.18 1215.12 3082.07 1214.95 3102.99 1215.01 C 3103.00 1257.67 3103.01 1300.33 3102.99 1342.99 C 3052.03 1342.98 3001.09 1343.06 2950.15 1342.95 C 2902.54 1276.85 2854.87 1210.78 2807.12 1144.78 C 2806.85 1168.16 2807.01 1191.56 2807.02 1214.96 C 2817.98 1214.99 2828.97 1214.98 2839.99 1215.03 C 2840.00 1257.68 2840.01 1300.33 2839.99 1342.99 C 2758.66 1343.01 2677.33 1343.01 2596.01 1342.99 C 2595.98 1300.32 2595.98 1257.66 2596.01 1215.00 C 2615.99 1215.01 2635.98 1214.98 2655.98 1214.99 C 2656.01 1104.66 2656.01 994.34 2655.98 884.01 C 2635.98 884.00 2615.99 883.99 2596.02 883.99 C 2595.97 842.00 2595.97 800.01 2596.02 758.02 M 2805.01 891.01 C 2804.98 943.67 2804.98 996.33 2805.01 1048.99 C 2826.66 1049.24 2848.38 1048.98 2869.97 1047.04 C 2894.28 1044.52 2919.92 1035.18 2934.62 1014.63 C 2949.25 993.29 2949.44 965.30 2942.81 941.07 C 2937.34 921.39 2921.37 905.43 2902.24 898.69 C 2871.32 886.35 2837.33 892.37 2805.01 891.01 Z" />
</g>
</svg>
